<svg width="85" height="25" viewBox="0 0 85 25" fill="none" xmlns="http://www.w3.org/2000/svg">
<path d="M3.16523 24.0059V20.2705H9.98848C11.4273 20.2705 12.5285 19.9827 13.2922 19.4072C14.0559 18.8206 14.4377 17.974 14.4377 16.8672V16.834C14.4377 16.1035 14.2606 15.4893 13.9064 14.9912C13.5523 14.4821 13.0266 14.1003 12.3293 13.8457C11.6431 13.5911 10.7909 13.4639 9.77266 13.4639H3.16523V10.0605H9.175C10.5917 10.0605 11.6652 9.77832 12.3957 9.21387C13.1372 8.63835 13.508 7.83594 13.508 6.80664V6.77344C13.508 5.82161 13.1815 5.08561 12.5285 4.56543C11.8755 4.03418 10.9624 3.76855 9.78926 3.76855H3.16523V0.0498047H11.0842C12.6005 0.0498047 13.9064 0.293294 15.0021 0.780273C16.0979 1.26725 16.9445 1.96452 17.5422 2.87207C18.1398 3.76855 18.4387 4.83105 18.4387 6.05957V6.09277C18.4387 6.96712 18.2339 7.7806 17.8244 8.5332C17.426 9.27474 16.8781 9.89453 16.1809 10.3926C15.4836 10.8796 14.6923 11.1839 13.8068 11.3057V11.4053C14.9247 11.4827 15.9152 11.7816 16.7785 12.3018C17.6418 12.8109 18.3169 13.486 18.8039 14.3271C19.302 15.1572 19.551 16.098 19.551 17.1494V17.1826C19.551 18.5771 19.2134 19.7835 18.5383 20.8018C17.8742 21.82 16.9224 22.6113 15.6828 23.1758C14.4543 23.7292 12.9823 24.0059 11.2668 24.0059H3.16523ZM0.658398 24.0059V0.0498047H5.67207V24.0059H0.658398ZM27.651 24.3711C26.345 24.3711 25.2327 24.1055 24.3141 23.5742C23.4065 23.0319 22.7092 22.2627 22.2223 21.2666C21.7464 20.2705 21.5084 19.0807 21.5084 17.6973V6.20898H26.3561V16.6846C26.3561 17.8467 26.6272 18.7487 27.1695 19.3906C27.7229 20.0326 28.5419 20.3535 29.6266 20.3535C30.1689 20.3535 30.6559 20.2594 31.0875 20.0713C31.5302 19.8831 31.9065 19.6175 32.2164 19.2744C32.5263 18.9202 32.7643 18.5052 32.9303 18.0293C33.0963 17.5423 33.1793 17.0111 33.1793 16.4355V6.20898H38.027V24.0059H33.1793V21.0674H33.0797C32.7698 21.7425 32.3603 22.3291 31.8512 22.8271C31.3531 23.3252 30.7499 23.707 30.0416 23.9727C29.3443 24.2383 28.5475 24.3711 27.651 24.3711ZM40.7812 24.0059V6.20898H45.6289V9.13086H45.7285C46.1934 8.11263 46.8796 7.31022 47.7871 6.72363C48.6947 6.13704 49.818 5.84375 51.1572 5.84375C53.1162 5.84375 54.627 6.43587 55.6895 7.62012C56.763 8.79329 57.2998 10.4258 57.2998 12.5176V24.0059H52.4521V13.5137C52.4521 12.3516 52.1755 11.4551 51.6221 10.8242C51.0798 10.1823 50.2663 9.86133 49.1816 9.86133C48.4622 9.86133 47.8369 10.0273 47.3057 10.3594C46.7744 10.6803 46.3594 11.1341 46.0605 11.7207C45.7728 12.3073 45.6289 12.9935 45.6289 13.7793V24.0059H40.7812ZM66.5619 24.3711C65.0678 24.3711 63.7784 24.0003 62.6937 23.2588C61.6091 22.5173 60.7735 21.4548 60.1869 20.0713C59.6114 18.6878 59.3236 17.0332 59.3236 15.1074V15.0908C59.3236 13.154 59.6169 11.4993 60.2035 10.127C60.7901 8.74349 61.6202 7.68652 62.6937 6.95605C63.7784 6.21452 65.0678 5.84375 66.5619 5.84375C67.4031 5.84375 68.1778 5.9821 68.8861 6.25879C69.5945 6.53548 70.2143 6.93392 70.7455 7.4541C71.2878 7.96322 71.7195 8.57747 72.0404 9.29688H72.14V0.0498047H76.9877V24.0059H72.14V20.9678H72.0404C71.7305 21.6761 71.31 22.2848 70.7787 22.7939C70.2475 23.292 69.6277 23.6794 68.9193 23.9561C68.211 24.2327 67.4252 24.3711 66.5619 24.3711ZM68.1889 20.3535C68.9747 20.3535 69.6664 20.1432 70.2641 19.7227C70.8617 19.291 71.3266 18.6823 71.6586 17.8965C71.9906 17.1107 72.1566 16.181 72.1566 15.1074V15.0908C72.1566 14.0173 71.9851 13.0931 71.642 12.3184C71.31 11.5326 70.8451 10.9294 70.2475 10.5088C69.6609 10.0771 68.9747 9.86133 68.1889 9.86133C67.3809 9.86133 66.6837 10.0716 66.0971 10.4922C65.5105 10.9128 65.0567 11.516 64.7357 12.3018C64.4148 13.0765 64.2543 14.0062 64.2543 15.0908V15.1074C64.2543 16.181 64.4092 17.1107 64.7191 17.8965C65.0401 18.6823 65.4939 19.291 66.0805 19.7227C66.6781 20.1432 67.3809 20.3535 68.1889 20.3535ZM79.9412 24.0059V0.0498047H84.7889V24.0059H79.9412Z" fill="#F67450"/>
</svg>
